<svg width="14" height="18" viewBox="0 0 14 18" fill="none" xmlns="http://www.w3.org/2000/svg">
<path d="M6.16672 1.50008L6.16672 14.4884L1.75589 10.0776C1.43047 9.75217 0.902975 9.75217 0.577559 10.0776C0.252142 10.403 0.252142 10.9307 0.577559 11.2561L6.41089 17.0895C6.73631 17.4149 7.26402 17.4149 7.58922 17.0895L13.4226 11.2561C13.5853 11.0934 13.6667 10.8801 13.6667 10.6667C13.6667 10.4536 13.5853 10.2403 13.4226 10.0776C13.0971 9.75217 12.5694 9.75217 12.2442 10.0776L7.83339 14.4884L7.83339 1.50008C7.83339 1.04008 7.46027 0.666748 7.00006 0.666748C6.53985 0.666748 6.16672 1.03987 6.16672 1.50008Z" fill="black"/>
</svg>
