<svg width="12" height="7" viewBox="0 0 12 7" fill="none" xmlns="http://www.w3.org/2000/svg">
<path d="M11.8801 0.722316L11.2789 0.121198C11.1988 0.0409255 11.1066 0.000915527 11.0022 0.000915527C10.8982 0.000915527 10.8059 0.0409255 10.7258 0.121198L6.00006 4.84671L1.27451 0.121325C1.19436 0.0410519 1.10213 0.00104181 0.997933 0.00104181C0.893696 0.00104181 0.801463 0.0410519 0.721359 0.121325L0.120283 0.722485C0.04001 0.802589 0 0.894823 0 0.999059C0 1.10321 0.0401363 1.19544 0.120283 1.27555L5.72349 6.87888C5.80359 6.95903 5.89587 6.99908 6.00006 6.99908C6.10426 6.99908 6.19637 6.95903 6.27643 6.87888L11.8801 1.27555C11.9602 1.1954 12 1.10317 12 0.999059C12 0.894823 11.9602 0.802589 11.8801 0.722316Z" fill="#777777"/>
</svg>
