<svg width="16" height="16" viewBox="0 0 16 16" fill="none" xmlns="http://www.w3.org/2000/svg">
<path d="M1.24984 15.3125C1.17581 15.3129 1.10243 15.2987 1.0339 15.2707C0.965363 15.2428 0.903029 15.2015 0.850469 15.1494C0.797746 15.0971 0.7559 15.0349 0.727342 14.9663C0.698785 14.8978 0.684082 14.8243 0.684082 14.75C0.684082 14.6757 0.698785 14.6022 0.727342 14.5337C0.7559 14.4651 0.797746 14.4029 0.850469 14.3506L14.3505 0.850623C14.4564 0.744702 14.6 0.685196 14.7498 0.685196C14.8996 0.685196 15.0433 0.744702 15.1492 0.850623C15.2551 0.956543 15.3146 1.1002 15.3146 1.25C15.3146 1.39979 15.2551 1.54345 15.1492 1.64937L1.64922 15.1494C1.59666 15.2015 1.53432 15.2428 1.46579 15.2707C1.39726 15.2987 1.32387 15.3129 1.24984 15.3125Z" fill="#777777"/>
<path d="M14.7499 15.3125C14.6758 15.3129 14.6024 15.2987 14.5339 15.2707C14.4654 15.2428 14.403 15.2015 14.3505 15.1494L0.850485 1.64937C0.744564 1.54345 0.685059 1.39979 0.685059 1.25C0.685059 1.1002 0.744564 0.956543 0.850485 0.850622C0.956406 0.744702 1.10007 0.685196 1.24986 0.685196C1.39965 0.685196 1.54331 0.744702 1.64924 0.850622L15.1492 14.3506C15.202 14.4029 15.2438 14.4651 15.2724 14.5337C15.3009 14.6022 15.3156 14.6757 15.3156 14.75C15.3156 14.8243 15.3009 14.8978 15.2724 14.9663C15.2438 15.0349 15.202 15.0971 15.1492 15.1494C15.0967 15.2015 15.0343 15.2428 14.9658 15.2707C14.8973 15.2987 14.8239 15.3129 14.7499 15.3125Z" fill="#777777"/>
</svg>
