<svg width="15" height="14" viewBox="0 0 15 14" fill="none" xmlns="http://www.w3.org/2000/svg">
<path d="M14.9325 11.1589L14.8579 10.9489C14.681 10.4584 14.1014 9.94676 13.569 9.81197L11.5983 9.30951C11.0639 9.17381 10.3015 9.35628 9.91054 9.72119L9.19732 10.3869C6.6053 9.73316 4.57276 7.83606 3.8733 5.41731L4.58656 4.75161C4.97757 4.38667 5.17304 3.6761 5.02764 3.17731L4.49027 1.33711C4.34488 0.839227 3.79572 0.298276 3.27114 0.135055L3.04618 0.0644613C2.5206 -0.0987599 1.77104 0.0663098 1.38006 0.431218L0.313179 1.42789C0.122581 1.60484 0.000765536 2.11096 0.000765536 2.11281C-0.0365493 5.27425 1.29163 8.32015 3.68764 10.5565C6.07777 12.7872 9.32901 14.0251 12.7064 13.9985C12.7241 13.9985 13.2821 13.8866 13.4727 13.7096L14.5396 12.7139C14.9305 12.349 15.1074 11.6494 14.9325 11.1589Z" fill="#4EA45D"/>
</svg>
