<svg width="17" height="18" viewBox="0 0 17 18" fill="none" xmlns="http://www.w3.org/2000/svg">
<path d="M12.6904 0.659435C9.83181 0.113522 6.86322 0.113522 4.00458 0.659435C2.74018 0.932392 1.14594 2.46095 0.871073 3.66196C0.376309 6.00939 0.376309 8.41141 0.871073 10.7588C1.20092 11.9598 2.79516 13.4884 4.00458 13.7614C4.05955 13.7614 4.11453 13.816 4.11453 13.8705V17.3098C4.11453 17.4736 4.33442 17.5828 4.44437 17.419L6.09359 15.7267C6.09359 15.7267 7.41296 14.3619 7.63285 14.1435C7.63285 14.1435 7.68783 14.0889 7.7428 14.0889C9.39202 14.1435 11.0962 13.9797 12.7454 13.7068C14.0098 13.4338 15.6041 11.9053 15.8789 10.7042C16.3737 8.35682 16.3737 5.9548 15.8789 3.60737C15.5491 2.46095 13.9548 0.932392 12.6904 0.659435ZM12.7454 10.9226C12.4705 11.4685 12.1407 11.9053 11.591 12.1782C11.426 12.2328 11.2611 12.2874 11.0962 12.342C10.8763 12.2874 10.7114 12.2328 10.5465 12.1782C8.7873 11.4685 7.13809 10.4859 5.81872 9.06651C5.10406 8.24764 4.49934 7.31958 4.00458 6.33694C3.78468 5.84562 3.56479 5.40888 3.39987 4.91756C3.23495 4.48083 3.50981 4.0441 3.78468 3.71655C4.05955 3.389 4.3894 3.17064 4.77421 3.00686C5.04908 2.84309 5.32395 2.95227 5.54385 3.17064C5.98364 3.71655 6.42343 4.26247 6.75327 4.86297C6.97317 5.24511 6.91819 5.68184 6.53338 5.9548C6.42343 6.00939 6.36845 6.06398 6.25851 6.17316C6.20353 6.22776 6.09358 6.28235 6.03861 6.39153C5.92866 6.5553 5.92866 6.71908 5.98364 6.88285C6.42343 8.13845 7.24803 9.1211 8.51243 9.66701C8.73233 9.77619 8.89725 9.83079 9.17212 9.83079C9.55694 9.77619 9.72186 9.33946 9.99673 9.1211C10.2716 8.90273 10.6014 8.90273 10.9313 9.06651C11.2062 9.23028 11.481 9.44864 11.8109 9.66701C12.0857 9.88538 12.3606 10.0492 12.6355 10.2675C12.8004 10.3767 12.8554 10.6497 12.7454 10.9226ZM10.4365 6.82826C10.3266 6.82826 10.3815 6.82826 10.4365 6.82826C10.2166 6.82826 10.1616 6.71908 10.1067 6.5553C10.1067 6.44612 10.1067 6.28235 10.0517 6.17316C9.99673 5.9548 9.88678 5.73643 9.66689 5.57266C9.55694 5.51807 9.44699 5.46348 9.33704 5.40888C9.17212 5.35429 9.06217 5.35429 8.89725 5.35429C8.73233 5.2997 8.67736 5.19052 8.67736 5.02674C8.67736 4.91756 8.84228 4.80838 8.95222 4.80838C9.83181 4.86297 10.4915 5.35429 10.6014 6.39153C10.6014 6.44612 10.6014 6.5553 10.6014 6.60989C10.6014 6.71908 10.5465 6.82826 10.4365 6.82826ZM9.88678 4.42624C9.61191 4.31706 9.33704 4.20787 9.0072 4.15328C8.89725 4.15328 8.73233 4.09869 8.62238 4.09869C8.45746 4.09869 8.34751 3.98951 8.40249 3.82573C8.40249 3.66196 8.51243 3.55278 8.67736 3.60737C9.22709 3.66196 9.72186 3.77114 10.2166 3.98951C11.2062 4.48083 11.7559 5.2997 11.9208 6.39153C11.9208 6.44612 11.9208 6.50071 11.9208 6.5553C11.9208 6.66449 11.9208 6.77367 11.9208 6.93744C11.9208 6.99203 11.9208 7.04663 11.9208 7.10122C11.8658 7.31958 11.481 7.37417 11.426 7.10122C11.426 7.04663 11.3711 6.93744 11.3711 6.88285C11.3711 6.39153 11.2611 5.90021 11.0412 5.46348C10.7114 4.97215 10.3266 4.64461 9.88678 4.42624ZM12.8554 7.70172C12.6904 7.70172 12.5805 7.53795 12.5805 7.37417C12.5805 7.04663 12.5255 6.71908 12.4705 6.39153C12.2507 4.6446 10.8213 3.22523 9.11715 2.95227C8.84228 2.89768 8.56741 2.89768 8.34751 2.84309C8.18259 2.84309 7.96269 2.84309 7.90772 2.62472C7.85275 2.46095 8.01767 2.29718 8.18259 2.29718C8.23756 2.29718 8.29254 2.29718 8.29254 2.29718C10.5465 2.35177 8.40249 2.29718 8.29254 2.29718C10.6014 2.35177 12.5255 3.88033 12.9103 6.17316C12.9653 6.5553 13.0203 6.93744 13.0203 7.37417C13.1302 7.53795 13.0203 7.70172 12.8554 7.70172Z" fill="white"/>
</svg>
