<svg width="70" height="70" viewBox="0 0 70 70" fill="none" xmlns="http://www.w3.org/2000/svg">
<g clip-path="url(#clip0_58_102)">
<path d="M4.27939 0.273348C3.39072 0.806551 3.41806 0.50577 3.41806 9.59757C3.41806 18.8124 3.39072 18.5116 4.37509 19.0312C4.82626 19.2636 5.35947 19.2773 12.961 19.2773C21.9161 19.2773 21.67 19.3046 22.3536 18.4023L22.7227 17.9101H42.4376H62.1661L62.4395 17.5956C62.8224 17.1718 66.5821 9.92569 66.5821 9.62491C66.5821 9.47452 65.6661 7.61514 64.545 5.46866C63.1368 2.76163 62.4122 1.51749 62.1935 1.40811C61.9474 1.27139 59.8009 1.23038 53.1563 1.23038H44.4474L44.0782 1.54483C43.6134 1.95499 43.586 2.6796 44.0372 3.03507C44.3106 3.26749 44.9122 3.28116 52.7052 3.28116H61.086L62.7403 6.43936L64.3946 9.61124L62.795 12.7011L61.1817 15.7909L41.9317 15.8319L22.6954 15.8593V9.57022V3.28116H31.5138C40.1544 3.28116 40.3321 3.28116 40.6056 3.00772C41.0157 2.59757 40.9747 1.87296 40.5235 1.51749C40.1681 1.23038 40.0587 1.23038 31.3907 1.23038H22.6134L22.3673 0.806551C21.8888 -0.0137615 21.9981 -8.96454e-05 12.961 -8.96454e-05C5.03134 -8.96454e-05 4.70322 0.0135822 4.27939 0.273348ZM20.6446 9.63858V17.2265H13.0567H5.46884V9.63858V2.05069H13.0567H20.6446V9.63858Z" fill="black"/>
<path d="M11.799 4.92169C10.7599 5.34552 11.1837 6.83576 12.3459 6.83576H12.8517V10.3221C12.8517 13.6307 12.8654 13.8221 13.1251 14.0818C13.5353 14.492 14.2599 14.451 14.6154 13.9998C14.8888 13.6443 14.9025 13.4803 14.9025 9.69318C14.9025 5.52326 14.8615 5.2088 14.2599 4.93537C13.8771 4.75763 12.2365 4.74396 11.799 4.92169Z" fill="#4EA45D"/>
<path d="M26.6055 6.43933C26.3457 6.64441 26.25 6.84949 26.25 7.17761C26.25 7.50574 26.3457 7.71082 26.6055 7.91589C26.9473 8.18933 27.1387 8.203 30.4473 8.203H33.9199L34.248 7.86121C34.4395 7.68347 34.5898 7.36902 34.5898 7.17761C34.5898 6.98621 34.4395 6.67175 34.248 6.49402L33.9199 6.15222H30.4473C27.1387 6.15222 26.9473 6.16589 26.6055 6.43933Z" fill="black"/>
<path d="M26.5509 11.5254C26.1544 11.9492 26.1681 12.5098 26.5919 12.9336L26.9337 13.2754L33.756 13.2344C41.2755 13.1934 40.92 13.2344 41.0978 12.3457C41.1661 11.9902 41.1114 11.8398 40.838 11.5664L40.4825 11.2109H33.6603H26.838L26.5509 11.5254Z" fill="black"/>
<path d="M3.99219 25.8945L3.48633 26.3594V35V43.6406L3.99219 44.1055L4.51172 44.5703H13.043H21.5742L21.998 44.2285C22.2168 44.0371 22.4492 43.75 22.4902 43.6133C22.5723 43.3398 22.8457 43.3398 42.3145 43.3398C60.8945 43.3398 62.0566 43.3262 62.3301 43.0938C62.6719 42.8066 66.582 35.3691 66.582 35C66.582 34.6309 62.6719 27.1934 62.3301 26.8926C62.0566 26.6738 60.8945 26.6602 42.3145 26.6602C22.8457 26.6602 22.5723 26.6602 22.4902 26.3867C22.4492 26.25 22.2168 25.9629 21.998 25.7715L21.5742 25.4297H13.043H4.51172L3.99219 25.8945ZM20.6445 35V42.5195H13.0566H5.46875V35V27.4805H13.0566H20.6445V35ZM62.7813 31.8828L64.4082 35L62.7813 38.1035L61.1406 41.2207L41.918 41.2617L22.6953 41.2891V35V28.7109L41.918 28.7383L61.1406 28.7793L62.7813 31.8828Z" fill="black"/>
<path d="M12.2363 30.2012C10.9512 30.5293 9.98047 31.6094 9.98047 32.7305C9.98047 33.2363 10.4727 33.7695 10.9238 33.7695C11.293 33.7695 11.7715 33.3594 11.9766 32.8535C12.3184 32.0469 13.3711 31.9648 13.6719 32.7441C13.8633 33.25 13.5215 33.8789 11.7578 36.2988C10.623 37.8438 10.2539 38.4453 10.2539 38.7734C10.2539 39.6895 10.8281 39.9082 13.3301 39.9219C14.9707 39.9219 15.6543 39.7852 15.9414 39.416C16.2148 39.0605 16.1738 38.5137 15.8594 38.1719C15.6133 37.9121 15.4355 37.8711 14.4238 37.8711C13.7813 37.8711 13.2617 37.8438 13.2617 37.8164C13.2617 37.7891 13.7129 37.1055 14.2734 36.3125C14.834 35.5059 15.4082 34.5625 15.5449 34.207C16.2695 32.334 15.1758 30.4336 13.1934 30.1738C12.8926 30.1328 12.4688 30.1465 12.2363 30.2012Z" fill="#4EA45D"/>
<path d="M26.8516 31.5C26.1954 31.7871 26.0313 32.5938 26.5235 33.0859C26.7832 33.3457 26.9747 33.3594 30.42 33.3594C33.961 33.3594 34.043 33.3594 34.3165 33.0586C34.8223 32.5117 34.6172 31.7188 33.8926 31.459C33.2364 31.2266 27.3985 31.2676 26.8516 31.5Z" fill="black"/>
<path d="M26.838 36.5039C26.2228 36.75 26.0587 37.6113 26.5235 38.1172L26.8107 38.418H33.7013H40.5919L40.8653 38.0625C41.0294 37.8574 41.1525 37.6113 41.1525 37.5156C41.1525 37.1602 40.838 36.668 40.5099 36.5176C40.1134 36.3398 27.3028 36.3262 26.838 36.5039Z" fill="black"/>
<path d="M4.37532 50.9687C3.39094 51.4882 3.41829 51.1874 3.41829 60.4296C3.41829 68.3866 3.43196 68.7148 3.69173 69.1386C4.22493 70.0273 3.92415 69.9999 12.9886 69.9999C21.9847 69.9999 21.889 70.0136 22.3675 69.1933L22.6136 68.7694H42.2464C58.3656 68.7558 61.9202 68.7284 62.1937 68.578C62.4261 68.455 63.1507 67.1972 64.5589 64.5175C65.6663 62.3847 66.5823 60.5253 66.5823 60.3749C66.5823 60.0605 62.8226 52.828 62.4398 52.3905L62.1663 52.0898H53.1839C44.6527 52.0898 44.1878 52.1034 43.9827 52.3358C43.6546 52.705 43.682 53.498 44.0374 53.8124C44.3109 54.0585 44.7074 54.0722 52.7464 54.1405L61.182 54.2089L62.7952 57.2987L64.3948 60.3886L62.7406 63.5605L61.0863 66.7187H41.8909H22.6956V60.4296V54.1542L31.5277 54.1132L40.3597 54.0722L40.6195 53.7441C40.9339 53.3612 40.9476 52.8007 40.6605 52.3905L40.4554 52.0898H31.596H22.723L22.3538 51.5976C21.6702 50.6952 21.9163 50.7226 12.9613 50.7226C5.3597 50.7226 4.82649 50.7362 4.37532 50.9687ZM20.6448 60.3612V67.9491H13.057H5.46907V60.3612V52.7733H13.057H20.6448V60.3612Z" fill="black"/>
<path d="M11.8263 55.7538C11.1563 56.0819 10.6095 56.6425 10.336 57.3124C10.0489 57.996 10.0626 58.2694 10.4044 58.7069C10.7872 59.1991 11.4981 59.1991 11.8809 58.7069C12.045 58.5018 12.1681 58.2558 12.1681 58.16C12.1681 57.914 12.7149 57.5585 13.0841 57.5585C13.4942 57.5585 13.9454 58.0233 13.9454 58.4472C13.9454 58.8847 13.4942 59.3358 13.0567 59.3358C12.5782 59.3358 12.0313 59.91 12.0313 60.4022C12.0313 60.8534 12.5235 61.3866 12.9474 61.3866C13.3438 61.3866 13.9454 61.9061 13.9454 62.2616C13.9454 62.4257 13.8497 62.6991 13.7266 62.8632C13.3302 63.4374 12.1681 63.1229 12.1681 62.4393C12.1681 62.0429 11.8673 61.5507 11.5255 61.4003C11.0606 61.1815 10.8829 61.2089 10.4727 61.537C10.0489 61.8651 9.99423 62.6034 10.336 63.41C11.17 65.4198 13.9044 65.8573 15.2716 64.203C16.0509 63.246 16.2013 62.0975 15.6681 61.0585L15.3399 60.4022L15.6681 59.705C16.1056 58.7616 16.0919 58.0643 15.627 57.1347C15.0938 56.1093 14.3829 55.6308 13.2481 55.5624C12.5782 55.5077 12.2501 55.5624 11.8263 55.7538Z" fill="#4EA45D"/>
<path d="M26.592 57.2031C26.1545 57.6406 26.1408 58.2285 26.5646 58.625C26.8791 58.9121 26.9748 58.9258 30.4338 58.9258C33.9748 58.9258 34.0021 58.9258 34.2892 58.6113C34.6584 58.2148 34.6721 57.6953 34.3303 57.2715C34.0705 56.9434 34.0568 56.9434 30.5021 56.9023L26.9338 56.8613L26.592 57.2031Z" fill="black"/>
<path d="M26.6055 62.2207C26.3457 62.4258 26.25 62.6309 26.25 62.959C26.25 63.2871 26.3457 63.4922 26.6055 63.6973C26.9609 63.9844 27.0977 63.9844 33.7285 63.9844H40.4824L40.8105 63.6426C41.002 63.4648 41.1523 63.1504 41.1523 62.959C41.1523 62.7676 41.002 62.4531 40.8105 62.2754L40.4824 61.9336H33.7285C27.0977 61.9336 26.9609 61.9336 26.6055 62.2207Z" fill="black"/>
</g>
<defs>
<clipPath id="clip0_58_102">
<rect width="70" height="70" fill="white"/>
</clipPath>
</defs>
</svg>
