<svg width="70" height="70" viewBox="0 0 70 70" fill="none" xmlns="http://www.w3.org/2000/svg">
<g clip-path="url(#clip0_59_116)">
<path d="M29.2441 0.273438C28.6289 0.601562 27.9727 1.27148 27.6582 1.90039C27.3438 2.54297 27.2207 5.46875 27.4941 5.97461C27.877 6.68555 28.0137 6.69922 33.6875 6.69922H38.9375L44.2832 11.1699L49.6152 15.6543V17.1582C49.6289 18.1699 49.5742 18.7305 49.4648 18.8398C49.3418 18.9629 45.7051 19.0039 33.9609 19.0039H18.6074L18.4023 18.7031C18.2109 18.4434 18.1836 17.6504 18.1836 12.8516C18.1836 6.54883 18.1426 6.78125 19.2227 6.6582C20.3711 6.53516 20.918 5.49609 20.3164 4.59375C20.002 4.11523 19.4961 3.92383 18.6621 3.99219C17.3906 4.10156 16.3516 4.83984 15.8047 6.01562C15.5313 6.61719 15.5176 6.83594 15.5176 12.8516C15.5176 18.8672 15.5313 19.0859 15.8047 19.6875C16.1465 20.4258 16.748 21.0547 17.459 21.4102C17.9375 21.6426 18.3887 21.6699 22.668 21.7109L27.3438 21.7519L27.3164 27.3848L27.2754 33.0176L24.9512 33.0859C22.9004 33.1406 22.5586 33.1953 21.998 33.4687C20.9863 33.9609 20.2891 34.6582 19.7969 35.6426C19.4004 36.4492 19.3457 36.6953 19.3457 37.666C19.3457 38.5957 19.4004 38.8828 19.7422 39.5527L20.125 40.3594L19.5781 40.8789C19.2773 41.166 18.8535 41.7676 18.6484 42.2051C18.3203 42.875 18.252 43.1758 18.252 44.0918C18.252 45.0625 18.3066 45.2949 18.7031 46.1016C18.9492 46.5937 19.3594 47.1953 19.6328 47.4277L20.1113 47.8516L19.7422 48.6445C19.4277 49.2871 19.3594 49.6152 19.3594 50.5176C19.3457 51.8164 19.7285 52.7871 20.6309 53.7715L21.1914 54.373L20.8633 55.1113C20.4121 56.0957 20.3164 56.9434 20.5078 57.9141C20.8086 59.3906 21.752 60.5937 23.1055 61.2226C23.7617 61.5371 24.0898 61.5918 25.5938 61.6328L27.3301 61.6875L27.3711 64.5176C27.4121 67.6211 27.4805 67.8808 28.3281 68.7558C29.1621 69.6035 29.6816 69.7812 31.6094 69.8359C33.6875 69.9043 34.4668 69.6992 35.3555 68.8789C36.3398 67.9629 36.5039 67.3203 36.5039 64.2715V61.7148L39.5527 61.5644C42.1777 61.4414 42.752 61.373 43.8184 61.0586C46.0879 60.3887 48.0977 59.2539 49.8066 57.6953L50.668 56.9023L59.6777 57.5723C64.6406 57.9414 68.8516 58.2012 69.043 58.1601C69.2344 58.1191 69.5215 57.9551 69.6992 57.8047L70 57.5176V47.7695V38.0352L69.5762 37.6797C69.3438 37.4883 69.043 37.3242 68.9063 37.3242C68.7695 37.3242 65.2148 37.5977 61.0176 37.9394C56.8203 38.2812 53.1563 38.5547 52.8828 38.5547C52.4043 38.5547 52.3223 38.4863 51.5566 37.4746C49.7793 35.1504 47.3184 33.3867 44.4336 32.375C43.0254 31.8828 41.6582 31.6914 39.0742 31.623L36.5039 31.541V26.6465V21.7519L43.2441 21.7109C49.8887 21.6699 49.9707 21.6699 50.5313 21.3691C51.2422 20.9863 52.0488 20.0703 52.2266 19.4277C52.2949 19.1543 52.3633 17.9785 52.3633 16.8027C52.3633 14.8613 52.3359 14.6289 52.0898 14.3144C51.7754 13.918 41.043 4.83984 40.25 4.30664C39.7852 3.99219 39.6348 3.96484 38.1309 3.96484H36.5039V3.41797C36.5039 2.61133 36.0254 1.49023 35.4512 0.929688C34.6035 0.109375 34.1934 0 31.8281 0C30.0508 0.0136719 29.668 0.0546875 29.2441 0.273438ZM33.4961 2.87109C33.6465 3.02148 33.7695 3.32227 33.7695 3.55469V3.96484H31.9238H30.0781V3.52734C30.0781 2.74805 30.3516 2.59766 31.8828 2.59766C33.0449 2.59766 33.2637 2.63867 33.4961 2.87109ZM33.7695 22.7227L33.7559 23.7207L31.9238 24.7598L30.0781 25.8125V23.7754V21.7383H31.9238H33.7695V22.7227ZM33.7695 29.2578V31.582H32.6348C32.0195 31.582 31.1855 31.6641 30.7891 31.7734L30.0645 31.9512L30.1055 30.4473L30.1465 28.9297L31.8555 27.9316C32.7988 27.3848 33.6055 26.9336 33.6738 26.9336C33.7285 26.9336 33.7695 27.9727 33.7695 29.2578ZM42.6836 34.6992C45.7188 35.5332 48.3027 37.3926 50.0117 40.0176C50.4766 40.7285 50.8731 41.1797 51.1328 41.2891C51.4336 41.4121 53.0332 41.3301 59.3086 40.8242C63.5879 40.4824 67.1699 40.1953 67.252 40.1953C67.3613 40.1953 67.4023 42.2734 67.4023 47.7832C67.4023 53.2793 67.3613 55.3711 67.252 55.3711C66.8555 55.3711 53.7305 54.4004 53.2246 54.332L52.6641 54.2637L53.2656 52.9785C53.5938 52.2676 53.8672 51.5293 53.8672 51.3242C53.8672 50.1894 52.5 49.5332 51.666 50.2715C51.543 50.3809 51.0918 51.1465 50.668 51.9941C49.3418 54.6465 47.7148 56.2871 45.1855 57.5586C43.2305 58.543 42.2734 58.748 39.0469 58.8711L36.3398 58.9668L36.4219 58.6797C36.7227 57.75 36.7227 56.6562 36.4355 55.4258C36.3535 55.0293 36.3672 55.0019 36.9004 54.8516C37.9805 54.5234 39.6484 52.5957 39.6484 51.6523C39.6484 51.3105 39.8535 51.2422 40.2773 51.4746C40.7695 51.7344 41.0703 51.7344 41.5488 51.4883C42.1641 51.1601 42.4375 50.2441 42.0957 49.6152C42.0273 49.4648 41.6035 49.123 41.1797 48.8496C38.1035 46.9082 36.7363 44.5019 36.5176 40.6465C36.4082 38.6914 36.3398 38.5137 35.5742 38.1855C35.1641 38.0215 35.0547 38.0215 34.6172 38.2402C33.8242 38.623 33.7695 38.8555 33.7695 41.8086C33.7695 43.9961 33.7285 44.543 33.5371 44.9394C32.9492 46.1973 31.0762 46.2793 30.3516 45.0762C30.0918 44.666 30.0781 44.3652 30.0781 40.1269C30.0781 35.957 30.1055 35.5879 30.3379 35.1914C30.8711 34.3164 30.9531 34.3027 36.5723 34.3574C41.207 34.4121 41.7266 34.4394 42.6836 34.6992ZM27.3438 37.666V39.5117H25.4023C23.2148 39.5117 22.8047 39.3887 22.2852 38.5273C21.957 37.9805 21.9434 37.4473 22.2441 36.8184C22.6543 35.9434 23.0371 35.8203 25.334 35.8203H27.3438V37.666ZM27.3848 43.7773C27.4121 44.625 27.4941 45.459 27.5488 45.623L27.6445 45.9375H24.9375C21.875 45.9375 21.5879 45.8555 21.1504 44.9394C20.8496 44.3105 20.8633 43.7773 21.1914 43.2305C21.7383 42.3281 22.0664 42.2461 24.8418 42.2461H27.3164L27.3848 43.7773ZM36.1348 48.9863C37.3242 49.7656 37.3242 51.4062 36.1348 52.1855C35.793 52.4043 35.2871 52.4316 30.0098 52.4726C26.8516 52.5 24.0078 52.4726 23.6934 52.4316C22.1895 52.2129 21.5332 50.5176 22.5039 49.3555C22.6953 49.1367 23.0508 48.8906 23.2832 48.8223C23.5293 48.7402 26.3184 48.6992 29.7363 48.7129C35.2871 48.7402 35.793 48.7539 36.1348 48.9863ZM33.4414 55.8086C34.3027 56.7519 34.043 58.1601 32.8945 58.707C32.498 58.8984 31.8418 58.9258 28.4785 58.9258C24.8145 58.9258 24.5137 58.9121 24.1035 58.6523C22.8867 57.9141 22.8184 56.2598 23.9668 55.5078C24.3906 55.248 24.5684 55.2344 28.6836 55.2617L32.9766 55.3027L33.4414 55.8086ZM33.7695 64.1211C33.7695 67.2109 33.8242 67.1289 31.8965 67.1289C29.9961 67.1289 30.0781 67.2519 30.0781 64.1621V61.6601H31.9238H33.7695V64.1211Z" fill="black"/>
<path d="M43.6951 50.6544C43.203 51.1192 43.1893 52.0899 43.6815 52.5684C44.1737 53.0743 45.076 53.0469 45.5682 52.5274C46.7303 51.3243 44.9256 49.5059 43.6951 50.6544Z" fill="black"/>
<path d="M53.7304 1.2168C52.2675 1.88673 50.9003 2.58399 50.6952 2.7754C49.7929 3.58204 50.6952 5.31837 51.8437 4.99024C52.5136 4.79884 57.6952 2.40626 57.955 2.16016C58.4882 1.66798 58.5019 0.875007 57.9687 0.300788C57.4218 -0.287102 56.7108 -0.136712 53.7304 1.2168Z" fill="#4EA45D"/>
<path d="M4.56625 1.44922C3.62289 1.91406 3.60922 3.32227 4.5389 3.80078C5.29086 4.18359 8.54476 5.33203 8.90023 5.33203C9.37875 5.33203 9.95297 4.83984 10.1034 4.29297C10.2674 3.71875 9.98031 3.08984 9.43343 2.80273C8.87289 2.51562 5.38656 1.23047 5.16781 1.23047C5.07211 1.23047 4.79867 1.32617 4.56625 1.44922Z" fill="#4EA45D"/>
<path d="M22.6132 4.08788C21.8476 4.416 21.6289 5.57811 22.2031 6.24803C22.8593 7.01366 24.3222 6.63084 24.5136 5.6328C24.5956 5.22264 24.3496 4.53905 24.0214 4.26561C23.748 4.03319 22.9687 3.93749 22.6132 4.08788Z" fill="black"/>
<path d="M56.8066 7.28715C56.1367 7.49222 55.6035 8.20316 55.7265 8.73637C55.9452 9.72074 56.6425 10.1309 57.6679 9.87113C58.8984 9.54301 59.3222 8.50394 58.5566 7.65629C58.1054 7.17777 57.5585 7.05472 56.8066 7.28715Z" fill="#4EA45D"/>
<path d="M57.3398 13.959C56.998 14.1367 56.6016 14.7656 56.6016 15.1621C56.6016 15.5996 56.875 16.0645 57.2715 16.3105C57.627 16.5156 62.5762 17.0898 64.0801 17.0898C65.1328 17.0898 65.748 16.3652 65.4746 15.4082C65.2559 14.5879 64.9688 14.4922 61.4004 14.1367C57.7637 13.7813 57.7363 13.7813 57.3398 13.959Z" fill="#4EA45D"/>
<path d="M5.38665 15.6406C2.5429 16.1191 1.01165 16.4336 0.765556 16.584C-0.314522 17.2949 0.177665 19.0039 1.46282 19.0039C2.13274 19.0039 10.9238 17.5137 11.2245 17.3496C11.9628 16.9668 12.0585 15.6953 11.3886 15.1758C10.8827 14.7793 10.2812 14.834 5.38665 15.6406Z" fill="#4EA45D"/>
<path d="M5.74219 23.0507C5.08594 23.3378 4.78516 23.7479 4.78516 24.4315C4.78516 24.8964 4.85352 25.0604 5.22266 25.3612C5.5918 25.6757 5.75586 25.7167 6.23438 25.662C7.73828 25.4979 8.36719 23.953 7.28711 23.1053C6.87695 22.7772 6.39844 22.7635 5.74219 23.0507Z" fill="#4EA45D"/>
<path d="M50.7637 25.293C50.1075 25.5664 49.793 26.5371 50.1621 27.1523C50.4629 27.6445 53.2383 29.6543 53.6485 29.6816C54.5782 29.7363 55.2344 29.1758 55.2344 28.3418C55.2344 27.7265 54.7422 27.2344 52.9239 26.0039C51.6797 25.1699 51.3516 25.0605 50.7637 25.293Z" fill="#4EA45D"/>
<path d="M12.2363 27.0976C11.7441 27.3984 9.03711 29.6679 8.75 30.037C8.4082 30.4745 8.4082 30.9804 8.75 31.5409C9.05078 32.0468 9.78906 32.2655 10.3496 32.0058C10.7324 31.828 13.2754 29.7636 13.8086 29.1894C14.2734 28.6972 14.2734 27.8769 13.7949 27.412C13.3984 27.0019 12.6328 26.8515 12.2363 27.0976Z" fill="#4EA45D"/>
</g>
<defs>
<clipPath id="clip0_59_116">
<rect width="70" height="70" fill="white"/>
</clipPath>
</defs>
</svg>
