<svg width="156" height="16" viewBox="0 0 156 16" fill="none" xmlns="http://www.w3.org/2000/svg">
<path d="M4.98 3.72L7.34 1.12H8.5L8.3 1.36C6.5 3.34667 4.92 5.08 3.56 6.56L2.46 7.74L2.68 8.08C2.74667 8.2 3.72667 9.42 5.62 11.74C7.40667 13.94 8.31333 15.0733 8.34 15.14C8.35333 15.1667 8.34 15.1867 8.3 15.2C8.26 15.2133 8.20667 15.22 8.14 15.22C8.07333 15.2333 8 15.24 7.92 15.24C7.69333 15.24 7.53333 15.2067 7.44 15.14C7.34667 15.0733 7.17333 14.88 6.92 14.56C6.8 14.4133 5.88 13.28 4.16 11.16L1.96 8.46C1.53333 8.9 0.906667 9.56 0.08 10.44V9.86C0.08 9.58 0.1 9.38 0.14 9.26C0.193333 9.14 0.333333 8.96 0.56 8.72C1.90667 7.17333 3.38 5.50667 4.98 3.72ZM17.405 1.76L17.685 1H18.185C18.4117 1 18.5583 1.01333 18.625 1.04C18.6917 1.06667 18.7517 1.14667 18.805 1.28C20.725 6.64 21.7383 9.38667 21.845 9.52C21.885 9.57333 22.2317 10.5067 22.885 12.32C23.5517 14.12 23.885 15.0467 23.885 15.1C23.885 15.1267 23.7317 15.14 23.425 15.14H22.965L21.585 11.26C20.7183 8.80667 20.1583 7.3 19.905 6.74C19.6517 6.16667 19.3317 5.31333 18.945 4.18C18.4783 2.91333 18.225 2.28 18.185 2.28C18.145 2.28 18.065 2.46 17.945 2.82C17.825 3.16667 17.7517 3.42667 17.725 3.6C17.6983 3.8 17.0117 5.76 15.665 9.48L13.645 15.14H13.185C12.8783 15.14 12.725 15.1333 12.725 15.12C12.725 15.0933 13.9917 11.5667 16.525 4.54C16.925 3.46 17.125 2.85333 17.125 2.72C17.125 2.57333 17.2183 2.25333 17.405 1.76ZM30.8848 1.26C31.3115 1.15333 31.7115 1.1 32.0848 1.1C32.9382 1.1 33.7115 1.32 34.4048 1.76C35.1115 2.18667 35.6048 2.76667 35.8848 3.5C36.0315 3.91333 36.1048 4.18 36.1048 4.3C36.1048 4.46 35.9648 4.54 35.6848 4.54C35.4982 4.54 35.3782 4.52667 35.3248 4.5C35.2715 4.46 35.2448 4.38667 35.2448 4.28C35.2448 4.08 35.1448 3.8 34.9448 3.44C34.7582 3.08 34.5715 2.82 34.3848 2.66C33.9315 2.28667 33.3648 2.05333 32.6848 1.96C32.4182 1.93333 32.2115 1.92 32.0648 1.92C31.4115 1.92 30.8182 2.06 30.2848 2.34C29.7648 2.62 29.3782 3.00667 29.1248 3.5C28.9915 3.75333 28.9248 4.02 28.9248 4.3C28.9248 4.32667 28.9248 4.38 28.9248 4.46C28.9382 4.54 28.9448 4.60667 28.9448 4.66C28.9715 5.15333 29.0915 5.52667 29.3048 5.78C29.5448 6.07333 29.8715 6.33333 30.2848 6.56C30.7115 6.77333 31.3648 7.01333 32.2448 7.28C33.2315 7.58667 33.9382 7.85333 34.3648 8.08C34.7915 8.29333 35.1648 8.56667 35.4848 8.9C36.0448 9.48667 36.3248 10.1267 36.3248 10.82C36.3248 10.9267 36.2982 11 36.2448 11.04C36.2048 11.0667 36.0915 11.08 35.9048 11.08C35.7048 11.08 35.5782 11.0667 35.5248 11.04C35.4848 11 35.4648 10.8933 35.4648 10.72C35.4515 10.1333 35.1848 9.63333 34.6648 9.22C34.1448 8.80667 33.2848 8.42667 32.0848 8.08C30.6982 7.66667 29.7048 7.22 29.1048 6.74C28.5182 6.24667 28.1848 5.60667 28.1048 4.82C28.1048 4.78 28.0982 4.72667 28.0848 4.66C28.0848 4.59333 28.0848 4.54667 28.0848 4.52C28.0848 3.76 28.3715 3.06667 28.9448 2.44C29.4648 1.86667 30.1115 1.47333 30.8848 1.26ZM45.1745 1.76L45.4545 1H45.9545C46.1812 1 46.3279 1.01333 46.3945 1.04C46.4612 1.06667 46.5212 1.14667 46.5745 1.28C48.4945 6.64 49.5079 9.38667 49.6145 9.52C49.6545 9.57333 50.0012 10.5067 50.6545 12.32C51.3212 14.12 51.6545 15.0467 51.6545 15.1C51.6545 15.1267 51.5012 15.14 51.1945 15.14H50.7345L49.3545 11.26C48.4879 8.80667 47.9279 7.3 47.6745 6.74C47.4212 6.16667 47.1012 5.31333 46.7145 4.18C46.2479 2.91333 45.9945 2.28 45.9545 2.28C45.9145 2.28 45.8345 2.46 45.7145 2.82C45.5945 3.16667 45.5212 3.42667 45.4945 3.6C45.4679 3.8 44.7812 5.76 43.4345 9.48L41.4145 15.14H40.9545C40.6479 15.14 40.4945 15.1333 40.4945 15.12C40.4945 15.0933 41.7612 11.5667 44.2945 4.54C44.6945 3.46 44.8945 2.85333 44.8945 2.72C44.8945 2.57333 44.9879 2.25333 45.1745 1.76ZM55.7944 5.54L55.7544 0.379999H56.5944L59.6744 4.6C61.4344 7.01333 62.9077 9.08 64.0944 10.8L65.4144 12.78C65.4144 12.5667 65.4277 12.24 65.4544 11.8C65.481 11.36 65.4944 11.0333 65.4944 10.82H66.3344V11.28C66.3344 11.5067 66.361 12.1 66.4144 13.06L66.4744 14.38H66.0344C65.8077 14.38 65.6477 14.3333 65.5544 14.24C65.461 14.16 65.2277 13.86 64.8544 13.34C64.7344 13.1667 64.461 12.78 64.0344 12.18C63.621 11.58 63.0544 10.7733 62.3344 9.76C61.6144 8.74667 60.9877 7.86 60.4544 7.1C58.0144 3.63333 56.7677 1.87333 56.7144 1.82C56.6744 1.79333 56.6544 2.02 56.6544 2.5C56.641 2.80667 56.6344 3.24 56.6344 3.8C56.6344 4 56.6344 4.38 56.6344 4.94C56.6477 5.48667 56.6544 5.94 56.6544 6.3L56.6944 10.88L56.3344 10.84C56.0677 10.8133 55.921 10.7867 55.8944 10.76C55.8544 10.72 55.821 8.98 55.7944 5.54ZM70.6069 2.08V1.22L73.3269 1.26C74.8335 1.28667 75.8135 1.34 76.2669 1.42C76.7202 1.48667 77.2602 1.68667 77.8869 2.02C79.2869 2.76667 80.2202 4.06667 80.6869 5.92C80.8202 6.44 80.8869 7.23333 80.8869 8.3C80.8869 9.14 80.8402 9.76667 80.7469 10.18C80.5469 11.1133 80.1669 11.9667 79.6069 12.74C79.0602 13.5 78.4135 14.0667 77.6669 14.44C77.0669 14.7333 76.4802 14.92 75.9069 15C75.3335 15.0933 74.3669 15.14 73.0069 15.14H70.6069V14.42L73.1269 14.36C74.7669 14.32 75.7935 14.24 76.2069 14.12C78.1402 13.5733 79.3535 12.2733 79.8469 10.22C79.9669 9.74 80.0269 9.07333 80.0269 8.22C80.0269 7.32667 79.9602 6.61333 79.8269 6.08C79.3335 4.22667 78.2735 2.99333 76.6469 2.38C76.3802 2.28667 76.0669 2.22667 75.7069 2.2C75.3469 2.17333 74.5535 2.14667 73.3269 2.12L70.6069 2.08ZM85.0092 1.94V1.08L87.2892 1.12C88.5959 1.14667 89.4759 1.21333 89.9292 1.32C90.3826 1.42667 90.8359 1.68 91.2892 2.08C91.8492 2.57333 92.2426 3.2 92.4692 3.96C92.5626 4.25333 92.6092 4.64667 92.6092 5.14C92.6092 5.88667 92.5092 6.48 92.3092 6.92C92.1626 7.25333 91.9159 7.60667 91.5692 7.98C91.2226 8.35333 90.8892 8.62 90.5692 8.78L90.0492 9.04L90.2692 9.5C90.3226 9.58 90.5826 10.0667 91.0492 10.96C91.5292 11.8533 92.0026 12.72 92.4692 13.56C92.9359 14.4133 93.1892 14.88 93.2292 14.96C93.2426 15.0133 93.0892 15.04 92.7692 15.04H92.2492C91.5559 13.7467 90.5159 11.82 89.1292 9.26H85.0092V8.42L87.2492 8.38C88.2492 8.35333 88.8959 8.32667 89.1892 8.3C89.4826 8.27333 89.7359 8.21333 89.9492 8.12C91.0426 7.6 91.6359 6.74 91.7292 5.54C91.7426 5.46 91.7492 5.34 91.7492 5.18C91.7492 3.82 91.2026 2.87333 90.1092 2.34L89.4692 2.02C88.9759 2.00667 88.2292 1.99333 87.2292 1.98C86.2426 1.96667 85.5026 1.95333 85.0092 1.94ZM104.28 2.24C103.947 2.14667 103.56 2.1 103.12 2.1C102.227 2.1 101.454 2.29333 100.8 2.68C100.52 2.85333 100.214 3.11333 99.8803 3.46C99.547 3.80667 99.287 4.14 99.1003 4.46C98.6203 5.26 98.3536 6.37333 98.3003 7.8V8.34C98.3003 10.3 98.807 11.8067 99.8203 12.86C100.7 13.7933 101.76 14.26 103 14.26C103.054 14.26 103.127 14.2533 103.22 14.24C103.314 14.24 103.387 14.24 103.44 14.24C104.48 14.1733 105.374 13.7933 106.12 13.1C106.867 12.4067 107.4 11.4667 107.72 10.28C107.84 9.81333 107.9 9.14667 107.9 8.28C107.9 7.29333 107.834 6.56 107.7 6.08C107.434 5.09333 107 4.26 106.4 3.58C105.8 2.9 105.094 2.45333 104.28 2.24ZM101.86 1.38C102.18 1.3 102.554 1.26 102.98 1.26C103.714 1.26 104.34 1.35333 104.86 1.54C106.22 2.02 107.254 2.98 107.96 4.42C108.267 5.06 108.474 5.64667 108.58 6.18C108.687 6.7 108.74 7.38667 108.74 8.24C108.727 9.8 108.447 11.0933 107.9 12.12C107.407 13.0667 106.72 13.8 105.84 14.32C104.96 14.84 104.027 15.1 103.04 15.1C101.52 15.1 100.254 14.5533 99.2403 13.46C98.0136 12.1267 97.4003 10.3667 97.4003 8.18C97.4003 6.78 97.6536 5.55333 98.1603 4.5C98.547 3.68667 99.0603 3.00667 99.7003 2.46C100.354 1.91333 101.074 1.55333 101.86 1.38ZM120.837 1.66C120.89 1.56667 121.09 1.52 121.437 1.52C121.637 1.52 121.737 1.54667 121.737 1.6C121.737 1.69333 120.93 3.96667 119.317 8.42L116.877 15.16L116.397 15.12L115.917 15.1L114.377 10.86C113.39 8.14 112.897 6.68667 112.897 6.5C112.897 6.40667 113.017 6.36 113.257 6.36C113.537 6.36 113.697 6.42 113.737 6.54C113.764 6.66 114.164 7.83333 114.937 10.06C115.724 12.2733 116.164 13.4867 116.257 13.7C116.297 13.7933 116.33 13.86 116.357 13.9C116.397 13.9533 116.424 13.9733 116.437 13.96C116.45 13.9467 117.917 9.84667 120.837 1.66ZM125.833 8.74L125.813 1.78H126.773C126.773 3.32667 126.766 5.65333 126.753 8.76C126.739 11.8533 126.733 14.1733 126.733 15.72H125.873L125.833 8.74ZM135.141 1.4C135.555 1.28 136.001 1.22 136.481 1.22C137.508 1.22 138.415 1.44667 139.201 1.9C139.815 2.24667 140.388 2.78 140.921 3.5C141.455 4.20667 141.728 4.81333 141.741 5.32V5.46C141.741 5.56667 141.721 5.63333 141.681 5.66C141.641 5.68667 141.548 5.71333 141.401 5.74C141.175 5.76667 141.041 5.73333 141.001 5.64C140.801 5.05333 140.635 4.64 140.501 4.4C140.368 4.14667 140.148 3.86 139.841 3.54C139.441 3.1 138.988 2.75333 138.481 2.5C138.148 2.34 137.888 2.24667 137.701 2.22C137.528 2.18 137.155 2.16 136.581 2.16C135.995 2.16 135.608 2.18 135.421 2.22C135.248 2.24667 134.961 2.36 134.561 2.56C133.628 3.01333 132.901 3.77333 132.381 4.84C131.915 5.77333 131.681 6.84 131.681 8.04C131.681 8.09333 131.681 8.18667 131.681 8.32C131.695 8.45333 131.701 8.55333 131.701 8.62C131.755 10.1133 132.081 11.3267 132.681 12.26C133.028 12.8067 133.488 13.2667 134.061 13.64C134.648 14.0267 135.241 14.26 135.841 14.34L136.421 14.4V14.82C136.421 14.9933 136.408 15.1067 136.381 15.16C136.355 15.2133 136.295 15.24 136.201 15.24H136.121C135.828 15.2267 135.441 15.14 134.961 14.98C134.481 14.8333 134.088 14.6733 133.781 14.5C133.155 14.1133 132.595 13.58 132.101 12.9C131.621 12.22 131.275 11.46 131.061 10.62C130.928 10.06 130.861 9.26667 130.861 8.24C130.861 7.21333 130.928 6.42 131.061 5.86C131.368 4.72667 131.881 3.76667 132.601 2.98C133.321 2.19333 134.168 1.66667 135.141 1.4ZM145.848 15.14V1.24H146.708V15.14H145.848ZM155.108 2.22V1.24H155.988V15.14H155.108V12.94C155.108 11.18 155.101 10.1133 155.088 9.74L155.068 8.72L153.148 8.7C152.254 8.68667 151.708 8.67333 151.508 8.66C151.321 8.63333 151.221 8.56667 151.208 8.46C151.194 8.38 151.188 8.28 151.188 8.16C151.188 8 151.281 7.90667 151.468 7.88C151.654 7.85333 152.208 7.82667 153.128 7.8L155.068 7.76L155.088 5.5C155.101 4.66 155.108 3.56667 155.108 2.22Z" fill="white"/>
</svg>
