<svg width="70" height="70" viewBox="0 0 70 70" fill="none" xmlns="http://www.w3.org/2000/svg">
<g clip-path="url(#clip0_59_129)">
<path d="M33.0858 0.191418C30.1327 0.820324 27.5624 2.7754 26.2636 5.35939C25.4296 7.04103 25.2245 7.95704 25.2382 9.98048C25.2518 11.4434 25.3065 11.8535 25.6073 12.7832C26.1268 14.3555 26.8378 15.4902 28.0956 16.7481C29.8866 18.5391 31.8827 19.4688 34.3026 19.6465C40.2362 20.0567 45.1854 15.1348 44.789 9.18751C44.7069 7.72462 44.2011 6.07032 43.4628 4.81251C42.7929 3.69142 41.0019 1.92775 39.8808 1.29884C37.8573 0.177746 35.1913 -0.246082 33.0858 0.191418ZM36.4491 2.3379C37.7616 2.57032 39.3612 3.41798 40.3593 4.41603C41.8905 5.94728 42.5878 7.62892 42.5878 9.84376C42.5878 12.0313 41.8905 13.7402 40.3866 15.2305C38.8964 16.7344 37.1874 17.4317 34.9999 17.4317C32.7851 17.4317 31.1034 16.7344 29.5722 15.2031C26.3456 11.9766 26.7147 6.56251 30.3651 3.80079C32.1561 2.43361 34.2479 1.94142 36.4491 2.3379Z" fill="#4EA45D"/>
<path d="M36.1348 8.50394L33.7695 10.8555L32.6895 9.80276C32.0469 9.17386 31.5 8.75003 31.3359 8.75003C30.625 8.75003 30.0781 9.29691 30.0781 10.0078C30.0781 10.336 32.6484 13.0293 33.25 13.3438C33.4551 13.4532 33.7695 13.5078 33.9473 13.4532C34.125 13.4121 35.5469 12.0996 37.1055 10.541C39.5117 8.12112 39.9219 7.65628 39.9219 7.30081C39.9082 6.69925 39.3613 6.15237 38.7461 6.15237C38.6094 6.15237 37.4336 7.20511 36.1348 8.50394Z" fill="#4EA45D"/>
<path d="M4.53906 22.5997C4.2793 22.8731 3.96484 24.4864 2.11914 34.9043C0.957031 41.5079 0 47.0313 0 47.1817C0 47.3321 0.136719 47.5918 0.314453 47.7559C0.560547 48.0157 1.12109 48.1524 3.65039 48.5899C6.50781 49.0958 6.71289 49.1094 7.02734 48.8907C7.21875 48.7676 7.4375 48.4258 7.5332 48.1251C7.69727 47.5918 7.72461 47.5782 8.12109 47.6602C8.62695 47.7696 8.51758 47.6602 8.88672 48.3985C9.40625 49.4239 10.4727 50.8868 11.3477 51.7481C12.1133 52.5 12.168 52.6094 12.168 53.1836C12.168 54.4551 13.3164 56.1231 14.6016 56.711C14.875 56.834 15.1211 56.9434 15.1484 56.9571C15.1758 56.9708 15.0527 57.3672 14.8887 57.8458C14 60.4981 15.8594 63.2872 18.7031 63.5333C19.4277 63.6016 20.1523 63.4375 21.2051 62.9727C21.3691 62.9043 21.4512 63 21.5742 63.3965C21.9707 64.7227 23.0371 65.8028 24.3633 66.254C25.2793 66.5547 26.7832 66.459 27.5762 66.0625L28.1504 65.7618L28.3691 66.4454C29.0664 68.5508 31.377 69.8086 33.5098 69.2618L34.3711 69.0293L35.2051 69.4805C35.9434 69.8907 36.1348 69.9317 37.1875 69.918C38.1309 69.918 38.4727 69.8497 39.0332 69.5899C40.332 68.961 41.2891 67.6758 41.4941 66.295L41.5898 65.6934L42.6289 65.6797C43.3945 65.6797 43.8594 65.5977 44.3242 65.3926C45.6777 64.7774 46.7578 63.3829 46.9766 61.9747L47.0586 61.4004L48.0566 61.4141C50.2168 61.4141 51.9121 60.0196 52.377 57.8594L52.5273 57.1485H53.457C55.7949 57.1485 57.627 55.5352 57.8047 53.334C57.8594 52.6094 57.9141 52.5137 58.7754 51.6114C59.7324 50.6133 60.5801 49.4376 61.1133 48.3985C61.2773 48.0567 61.4277 47.7696 61.4414 47.7696C61.4414 47.7559 61.6465 47.7012 61.8789 47.6602C62.2754 47.5782 62.3027 47.5918 62.4668 48.1251C62.5625 48.4258 62.7812 48.7676 62.9727 48.8907C63.2871 49.1094 63.4922 49.0958 66.3496 48.5899C68.8789 48.1524 69.4395 48.0157 69.6855 47.7559C69.8633 47.5918 70 47.3321 70 47.1817C70 46.9629 66.0898 24.5274 65.8164 23.2012C65.707 22.6817 65.2422 22.2852 64.75 22.2852C64.5312 22.2852 63.1094 22.504 61.6055 22.7637C59.1172 23.2012 58.8301 23.2833 58.543 23.6114C58.2559 23.9258 58.2285 24.0489 58.3105 24.7188C58.3652 25.129 58.4336 25.5528 58.4609 25.6348C58.5156 25.7442 58.0508 25.8809 56.998 26.0586L55.4668 26.3321L48.959 25.334C45.377 24.7872 42.0684 24.336 41.5898 24.336C40.25 24.336 38.7871 24.7051 36.8184 25.5254L35 26.2911L33.1953 25.5254C30.9395 24.5821 29.4902 24.2676 27.8906 24.377C27.248 24.418 24.1172 24.8692 20.918 25.3614C17.7188 25.8536 14.9297 26.2637 14.6973 26.2774C13.9316 26.3047 11.4707 25.7989 11.5391 25.6348C11.5664 25.5391 11.6348 25.129 11.6895 24.7188C11.7715 24.0489 11.7441 23.9258 11.457 23.6114C11.1699 23.2833 10.8965 23.2012 8.39453 22.7637C5.12695 22.1895 4.92188 22.1895 4.53906 22.5997ZM7.84766 24.8829C8.66797 25.0333 9.35156 25.17 9.36523 25.1836C9.37891 25.211 6.78125 40.0723 5.81055 45.4727L5.5918 46.7032L3.99219 46.4161C2.43359 46.1426 2.39258 46.129 2.43359 45.8008C2.50195 45.3497 5.98828 25.4708 6.09766 24.9786C6.13867 24.7735 6.2207 24.6094 6.26172 24.6094C6.31641 24.6094 7.02734 24.7325 7.84766 24.8829ZM63.9023 24.9786C64.0117 25.5254 67.5117 45.3907 67.5664 45.8008C67.6074 46.129 67.5664 46.1426 66.0352 46.4297C65.1738 46.5801 64.4355 46.6485 64.4082 46.5938C64.3398 46.4161 60.6074 25.2383 60.6348 25.1836C60.6758 25.1426 63.2598 24.6504 63.6016 24.6231C63.7383 24.6094 63.8477 24.7461 63.9023 24.9786ZM30.0234 26.7286C31.0078 26.961 31.9922 27.3301 31.9922 27.4668C31.9922 27.5215 31.1445 27.9317 30.1191 28.3692C27.5352 29.4629 27.0156 29.7364 26.3594 30.3243C25.7441 30.8848 21.2461 37.5157 20.9727 38.2813C20.0293 40.8926 22.832 43.4493 26.0586 42.9297C27.9043 42.629 29.0391 41.7403 30.6387 39.3477L31.7051 37.7618L32.6348 37.5567C33.1406 37.4336 33.9336 37.2696 34.3848 37.1875C34.8359 37.1055 35.3008 37.0098 35.4238 36.9688C35.5879 36.9278 35.7793 37.1739 36.1484 37.9395C37.3105 40.4141 39.5801 42.2872 42.1367 42.9161C42.6016 43.0254 44.3926 44.1465 48.7676 47.045C52.0625 49.2325 54.8652 51.1192 55.0156 51.2422C55.6855 51.8575 55.877 53.1016 55.4121 53.9083C55.002 54.5918 54.3594 54.961 53.5254 54.961C52.8145 54.961 52.7324 54.92 47.8379 51.6797C44.8711 49.7247 42.7383 48.3985 42.5469 48.3985C42.3691 48.3985 42.041 48.5762 41.8223 48.795C40.9609 49.6563 41.1797 49.8887 45.4316 52.7051C47.4688 54.0586 49.3418 55.3438 49.5879 55.5489C50.4492 56.3008 50.4902 57.6133 49.6699 58.5157C49.082 59.1719 48.2344 59.418 47.4824 59.1583C47.1953 59.0489 45.3086 57.8731 43.2715 56.5333C41.248 55.1934 39.416 54.0313 39.2246 53.9493C38.541 53.7032 37.7344 54.5372 37.9258 55.2891C37.9941 55.5626 38.7188 56.1094 41.0703 57.6817C42.752 58.8028 44.2559 59.9102 44.4062 60.129C45.3359 61.4141 44.543 63.2051 42.916 63.5059C42.3555 63.6153 41.7402 63.3965 40.8242 62.7676C40.3047 62.3985 40.2227 62.2754 40.1406 61.7012C39.9355 60.1973 38.9785 58.8985 37.6113 58.2696C36.5859 57.7911 35.1094 57.7774 34.125 58.2149C33.3457 58.5704 33.3594 58.5704 33.3594 58.3379C33.3594 58.2286 33.168 57.7637 32.9355 57.2989C32.2109 55.8633 30.748 54.961 29.1074 54.961H28.4648L28.3691 54.3731C28.2051 53.3887 27.7539 52.5411 27.0566 51.8848C26.3867 51.2696 25.4434 50.7364 24.9922 50.7227C24.8008 50.7227 24.7871 50.6543 24.9102 50.2032C25.2656 48.9317 24.7324 47.168 23.6934 46.129C22.4629 44.8985 20.3848 44.543 18.8672 45.2813C18.1836 45.6231 14.793 48.3575 13.4668 49.6426C13.1523 49.9297 12.8652 50.1758 12.8105 50.1758C12.6191 50.1758 11.2109 48.1387 10.6777 47.0723C10.377 46.4571 10.0078 45.8829 9.87109 45.8145C9.73438 45.7461 9.29688 45.6368 8.91406 45.5821C8.51758 45.5274 8.16211 45.4454 8.13477 45.3907C8.06641 45.2676 11.0469 28.1504 11.1562 28.0411C11.1836 28 11.9629 28.1094 12.8652 28.2598L14.5195 28.5469L18.5117 27.9454C20.6992 27.6172 23.5977 27.1661 24.9512 26.9473C27.7812 26.4961 28.8477 26.4551 30.0234 26.7286ZM48.9043 27.5352L55.5762 28.5469L57.1758 28.2598C58.0645 28.1094 58.8164 28.0137 58.8438 28.0411C58.9531 28.1504 61.9336 45.2676 61.8652 45.3907C61.8379 45.4454 61.4824 45.5274 61.0859 45.5821C60.7031 45.6368 60.2656 45.7325 60.1426 45.8145C60.0059 45.8829 59.582 46.5391 59.2129 47.2774C58.8301 48.002 58.2148 48.9864 57.832 49.4512L57.1348 50.3126L56.7383 49.8614C56.5195 49.629 54.1953 48.002 51.5566 46.2793C48.9316 44.543 46.7715 43.0938 46.7715 43.0528C46.7578 43.0118 47.0586 42.9024 47.4277 42.8067C47.7969 42.711 48.4668 42.4649 48.918 42.2461C49.8477 41.8086 51.7891 40.5508 52.0625 40.2227C52.3223 39.8809 52.2539 39.2247 51.9258 38.8692C51.4609 38.3633 50.9141 38.459 49.7109 39.2383C47.5918 40.6192 46.4707 41.0157 44.6387 41.0157C42.5742 41.0157 40.8105 40.3047 39.4434 38.9102C38.582 38.0352 37.8301 36.709 37.6523 35.7657C37.5293 35.0821 37.0508 34.5899 36.5312 34.5899C36.1758 34.5899 31.2266 35.5743 30.584 35.7657C30.4473 35.8067 29.7227 36.7637 28.9844 37.8848C28.0684 39.252 27.4395 40.0313 27.0977 40.25C26.3867 40.7286 25.4434 40.92 24.6641 40.7422C23.4746 40.4688 22.9688 40.0586 22.9688 39.3477C22.9688 38.9102 27.4531 32.211 28.0273 31.7872C28.6289 31.3497 38.8828 26.9747 39.8945 26.7422C40.3184 26.6329 41.0293 26.5372 41.4531 26.5372C41.877 26.5235 45.2402 26.9747 48.9043 27.5352ZM21.6016 47.3321C22.4082 47.7559 22.7227 48.2344 22.8047 49.1094C22.873 50.1075 22.6406 50.4219 20.0977 52.5958C17.9102 54.4688 17.1445 54.961 16.4746 54.961C15.873 54.961 14.9434 54.4415 14.6289 53.9493C14.2871 53.375 14.2598 52.3223 14.6016 51.7208C14.8613 51.2286 19.25 47.4961 19.8926 47.2227C20.4941 46.9629 20.918 46.9903 21.6016 47.3321ZM25.1289 53.1836C25.375 53.334 25.6895 53.6485 25.8398 53.8946C26.168 54.4415 26.1953 55.4805 25.9082 56.0547C25.6758 56.5059 20.3301 61.0313 19.7695 61.25C18.8809 61.5782 17.8828 61.2911 17.3086 60.5254C16.8164 59.8829 16.7207 59.2129 17.0215 58.4473C17.2129 57.9141 17.6094 57.5313 19.7969 55.6856C21.2051 54.5098 22.5586 53.4024 22.8184 53.2247C23.4199 52.8145 24.4863 52.8008 25.1289 53.1836ZM30.3379 57.545C31.2129 58.1739 31.5 59.5411 30.9531 60.4024C30.6387 60.9083 27.0566 63.9434 26.5645 64.1348C26.3867 64.2032 25.9629 64.2579 25.6484 64.2579C24.8555 64.2579 24.2129 63.8067 23.8027 62.9727C23.502 62.3575 23.4883 62.2618 23.6387 61.6739C23.7344 61.3321 23.9121 60.9356 24.0352 60.7852C24.4316 60.3477 27.5215 57.7501 28.0273 57.4356C28.6426 57.0391 29.6953 57.0938 30.3379 57.545ZM36.7773 60.3204C37.6523 60.7715 37.9395 61.2364 37.9395 62.2071C37.9395 63.2461 37.8164 63.3965 35.4648 65.3926C33.4004 67.1426 32.9219 67.375 32.0059 67.129C30.9668 66.8555 30.3516 66.0899 30.3516 65.0782C30.3516 64.1075 30.666 63.6973 32.6895 62.002C35.2188 59.8965 35.6152 59.7325 36.7773 60.3204ZM39.3477 65.7754C39.2383 66.9102 38.4727 67.6758 37.3652 67.7715C37.0098 67.7989 36.6133 67.7579 36.5039 67.6895C36.3398 67.5665 36.3945 67.4708 36.8457 67.1016C37.1465 66.8555 37.7891 66.295 38.2812 65.8711C38.7734 65.4473 39.2246 65.0918 39.293 65.0782C39.3613 65.0782 39.375 65.3926 39.3477 65.7754Z" fill="black"/>
</g>
<defs>
<clipPath id="clip0_59_129">
<rect width="70" height="70" fill="white"/>
</clipPath>
</defs>
</svg>
