<svg width="70" height="70" viewBox="0 0 70 70" fill="none" xmlns="http://www.w3.org/2000/svg">
<path d="M20.0293 0.191414C19.4688 0.45118 18.8945 1.09376 18.7305 1.6543C18.6484 1.92774 18.5938 4.82618 18.5938 8.76368V15.4082L17.8418 15.4902C16.4883 15.627 16.0508 16.2285 16.1602 17.7734L16.2285 18.7305L15.5039 19.1406C13.9863 20.0156 12.3047 21.957 12.3047 22.8594C12.3047 23.4336 12.7559 23.8164 13.3711 23.7617C13.8086 23.7207 13.9453 23.625 14.4785 22.8594C14.8066 22.3809 15.3945 21.7383 15.7773 21.4375L16.4746 20.8906L16.625 21.2734C16.7207 21.4922 16.9531 21.8203 17.1582 22.0117C17.5 22.3398 17.623 22.3535 19.3457 22.3945C21.4785 22.4492 21.8887 22.3262 22.2715 21.4512L22.5176 20.918L23.0508 21.3008C23.8301 21.875 24.459 22.6406 24.8965 23.584C25.4023 24.6504 25.5664 25.5527 25.5664 27.2891V28.7109H19.5508H13.5352V27.7676C13.5352 26.7285 13.3848 26.168 13.0156 25.8945C12.6738 25.6211 12.127 25.6621 11.7852 25.9766C11.5254 26.2227 11.4844 26.4004 11.4844 27.4668V28.6836L10.7051 28.7383C9.84375 28.8203 9.43359 29.1484 9.43359 29.791C9.43359 30.4336 9.73438 30.6797 10.623 30.7617L11.416 30.8301L11.4844 35.082L11.5527 39.3203L12.0723 40.3594C12.7832 41.8086 14.0137 42.8613 15.627 43.3945C15.832 43.4629 15.8594 43.668 15.8594 45.0215C15.8594 46.416 15.8184 46.6348 15.5039 47.2773C14.9434 48.4121 14.3965 48.7676 11.3887 49.957C9.89844 50.5586 8.43555 51.1602 8.14844 51.2969C7.32812 51.707 6.38477 52.6777 5.93359 53.5527L5.53711 54.3457L5.49609 61.8516L5.45508 69.3574L5.75586 69.6855L6.05664 70H19.6465H33.2363L33.5645 69.6582C33.9062 69.3301 33.9062 69.3164 33.9062 66.6641V63.9844L48.4395 63.957C64.6953 63.916 63.4648 63.998 64.1895 62.9316L64.5312 62.4121V37.8438V13.2754L64.1758 13.002C63.7109 12.6328 63.3008 12.6328 62.918 12.9883C62.7539 13.1523 62.6035 13.2891 62.5898 13.3027C62.5625 13.3164 62.5215 24.2539 62.4805 37.5977L62.4121 61.8652L48.166 61.9063L33.9062 61.9336V58.543C33.9062 54.7559 33.8242 54.1953 33.0859 53.0469C32.3066 51.8438 31.623 51.4199 28.3008 50.0938C24.9648 48.7676 24.3359 48.3711 23.7754 47.209C23.5156 46.6758 23.4473 46.2656 23.4062 44.9805L23.3516 43.4082L24.1172 43.0801C25.0742 42.6836 26.25 41.6445 26.7832 40.6875C27.5078 39.4297 27.6172 38.623 27.6172 34.4805V30.7617H28.3008C29.1348 30.7617 29.5312 30.4336 29.5312 29.7637C29.5312 29.1348 29.1484 28.8203 28.3008 28.7383L27.6172 28.6699V27.2207C27.6035 25.2793 27.3438 23.8848 26.7285 22.627C26.1133 21.3281 24.8281 19.9473 23.5977 19.2227C22.6406 18.6621 22.668 18.7441 22.9141 17.541C23.1055 16.5703 22.3945 15.6406 21.3145 15.5039L20.6445 15.4082L20.6719 8.76368L20.7129 2.11915L41.6035 2.07813L62.4805 2.05079V5.85157C62.4805 8.28516 62.5352 9.83008 62.6309 10.1035C62.8906 10.8418 63.7109 11.0469 64.2305 10.4863C64.5312 10.1719 64.5312 10.0898 64.5312 5.85157C64.5312 1.61329 64.5312 1.53126 64.2168 1.09376C64.0527 0.847664 63.7383 0.505867 63.5332 0.355476L63.1504 0.068367L41.7949 0.0410233C24.1582 0.0136795 20.3711 0.0410233 20.0293 0.191414ZM20.7812 17.6504C20.7812 17.7188 20.7129 18.375 20.6172 19.0859L20.4668 20.3848L19.4961 20.3438L18.5254 20.3027L18.375 19.1406C18.2793 18.4981 18.1973 17.8691 18.1973 17.7324C18.1836 17.5273 18.334 17.5 19.4824 17.5C20.3027 17.5 20.7812 17.5547 20.7812 17.6504ZM25.5391 34.4395C25.5801 38.5 25.498 39.0469 24.7051 40.0859C24.459 40.4141 23.9258 40.8516 23.5156 41.084L22.7637 41.4941H19.4824C16.3652 41.4941 16.1738 41.4805 15.6406 41.1934C14.752 40.7148 14.2734 40.25 13.8906 39.4844L13.5352 38.7734V34.7676V30.7617L19.5234 30.7891L25.498 30.8301L25.5391 34.4395ZM21.3281 44.5566C21.3281 45.4316 21.3008 45.5137 20.959 45.7461C20.3984 46.1289 18.8945 46.1016 18.3613 45.7188C18.0195 45.459 17.9785 45.3359 17.9375 44.5156L17.8965 43.6133H19.6191H21.3281V44.5566ZM18.252 47.9199C18.9766 48.1797 20.3301 48.1797 21.0547 47.9199C21.3691 47.8105 21.6562 47.7148 21.6836 47.7148C21.7109 47.7148 21.8887 48.0156 22.0664 48.3848C22.4492 49.123 23.4609 50.2031 24.0762 50.5313L24.4727 50.7363V52.2676C24.4727 54.0313 24.2676 54.6328 23.4746 55.3301C22.709 56 22.2441 56.082 19.3184 56.0273L16.707 55.9863L16.1191 55.5762C15.8047 55.3438 15.3945 54.8926 15.2168 54.5645C14.9434 54.0313 14.9023 53.7715 14.9023 52.3496V50.75L15.3672 50.4629C16.0234 50.0527 16.9941 48.9727 17.3086 48.3027C17.4453 47.9883 17.5957 47.7148 17.6367 47.7148C17.6777 47.7148 17.9512 47.8105 18.252 47.9199ZM12.8789 53.1426C12.9199 54.3184 13.002 54.7559 13.248 55.2617C13.7402 56.2871 14.5469 57.0938 15.5586 57.5859L16.4746 58.0371H19.6875C22.8867 58.0371 22.9004 58.0371 23.6797 57.668C24.6777 57.2031 25.5527 56.3145 26.0449 55.2891C26.373 54.6191 26.4414 54.25 26.4961 53.0742C26.5371 52.3086 26.5918 51.6797 26.6328 51.6797C26.6875 51.6797 26.9883 51.7754 27.3027 51.8984L27.8906 52.1309V60.0332V67.9492H19.6875H11.4844V66.377C11.4844 64.5313 11.3203 64.0664 10.6504 63.916C10.3359 63.8477 10.1309 63.8887 9.85742 64.0938C9.51562 64.3535 9.50195 64.3945 9.46094 66.1582L9.41992 67.9492H8.47656H7.51953V61.4961C7.51953 55.2344 7.5332 55.0293 7.80664 54.4551C8.09375 53.8672 8.94141 53.0469 9.25586 53.0469C9.39258 53.0469 9.43359 53.9219 9.43359 57.1758C9.43359 61.2227 9.43359 61.3047 9.73438 61.6191C10.0898 62.002 10.6504 62.0293 11.0879 61.6738L11.416 61.4141L11.457 56.7656L11.498 52.1172L12.0039 51.9121C12.8242 51.5703 12.8105 51.5566 12.8789 53.1426ZM30.6523 53.3887C30.9395 53.5801 31.2812 54.0176 31.5 54.4414L31.8555 55.1523V61.5508V67.9492H30.8984H29.9414V60.498C29.9414 56.3965 29.9824 53.0469 30.0508 53.0469C30.1055 53.0469 30.3789 53.1973 30.6523 53.3887Z" fill="black"/>
<path d="M15.3125 61.7832C14.8339 62.2617 14.7929 62.5898 15.1894 63.082L15.4628 63.4375H19.6328C23.6113 63.4375 23.8027 63.4238 24.0625 63.1641C24.4316 62.7949 24.4179 62.0566 24.0488 61.7148C23.7753 61.4688 23.4746 61.4551 19.7421 61.4141L15.7089 61.373L15.3125 61.7832Z" fill="black"/>
<path d="M23.7754 5.44141C23.3242 5.81055 23.3652 6.50781 23.8437 6.93164L24.2265 7.25977L29.2168 7.21875L34.207 7.17773L34.4668 6.84961C34.8086 6.43945 34.7949 5.81055 34.4531 5.46875C34.1933 5.20898 34.0019 5.19531 29.1347 5.19531C24.4453 5.19531 24.0762 5.20898 23.7754 5.44141Z" fill="black"/>
<path d="M38.6367 6.43945C38.1719 6.80859 38.1445 7.49219 38.5957 7.90234L38.9101 8.20312H47.1133C55.1797 8.20312 55.3301 8.20312 55.6172 7.92969C56.0547 7.51953 56.0273 6.80859 55.5625 6.43945C55.207 6.15234 55.084 6.15234 47.0996 6.15234C39.1152 6.15234 38.9922 6.15234 38.6367 6.43945Z" fill="black"/>
<path d="M23.7206 8.75C23.3788 9.13281 23.4062 9.78906 23.7753 10.1582C24.0624 10.459 24.1034 10.459 29.1347 10.459H34.2069L34.4667 10.1309C34.8085 9.7207 34.7948 9.0918 34.453 8.75C34.1933 8.49023 34.0019 8.47656 29.08 8.47656C24.1308 8.47656 23.9667 8.49023 23.7206 8.75Z" fill="black"/>
<path d="M37.1328 10.6777L36.7773 10.9512V15.8594V20.7676L37.1328 21.041C37.4883 21.3144 37.6523 21.3281 41.8496 21.3281H46.2109V22.5449C46.2109 23.5566 46.252 23.8027 46.498 24.1172C46.8672 24.582 47.5508 24.6094 47.9609 24.1582C48.2344 23.8574 48.2617 23.707 48.2617 21.916C48.2617 20.1797 48.2344 19.9609 47.9746 19.6328L47.7012 19.2773H43.2578H38.8281V15.8594V12.4414H42.5195H46.2109V14.7519C46.2109 16.8711 46.2383 17.0762 46.498 17.4179C46.8535 17.8691 47.5781 17.9101 47.9883 17.5C48.2344 17.2539 48.2617 17.0488 48.2617 14.834V12.4414H52.0215H55.7812L55.7539 22.7226L55.7129 33.0176L47.2773 33.0586L38.8281 33.0859V31.6504V30.2148H43.2031H47.5918L47.9199 29.873C48.248 29.5586 48.2617 29.4629 48.2617 27.8906C48.2617 26.3183 48.248 26.2226 47.9199 25.9082C47.4961 25.4707 46.9766 25.4707 46.5527 25.9082C46.252 26.1953 46.2109 26.3594 46.2109 27.207V28.164H41.8496C37.6523 28.164 37.4883 28.1777 37.1328 28.4512L36.7773 28.7246V31.5957C36.7773 34.248 36.791 34.4668 37.0371 34.7129C37.1875 34.8633 37.5156 35.0273 37.7617 35.0683C38.0078 35.1094 42.4785 35.1367 47.6738 35.1094L57.1348 35.0683L57.4492 34.7539L57.7637 34.4394L57.8047 22.9277C57.832 14.8887 57.791 11.3066 57.6816 11.0605C57.6133 10.8554 57.3809 10.6367 57.2031 10.541C56.957 10.4316 54.0859 10.3906 47.1816 10.3906C37.5977 10.3906 37.4883 10.3906 37.1328 10.6777Z" fill="#4EA45D"/>
<path d="M23.7206 12.0312C23.3788 12.4141 23.4062 13.0703 23.7753 13.4395C24.0624 13.7402 24.1034 13.7402 29.1347 13.7402H34.2069L34.4667 13.4121C34.8085 13.002 34.7948 12.373 34.453 12.0312C34.1933 11.7715 34.0019 11.7578 29.08 11.7578C24.1308 11.7578 23.9667 11.7715 23.7206 12.0312Z" fill="black"/>
<path d="M30.3106 37.9668C29.9142 38.418 29.8868 38.8965 30.256 39.3203L30.5977 39.7168H43.8731H57.1349L57.4356 39.416C57.8048 39.0469 57.8321 38.3906 57.4903 38.0078C57.2442 37.7344 57.0938 37.7344 43.8868 37.7344C31.336 37.7344 30.5157 37.748 30.3106 37.9668Z" fill="black"/>
<path d="M30.3243 42.6562C29.9961 42.998 29.9278 43.1484 29.9961 43.4492C30.0508 43.6543 30.2149 43.9277 30.379 44.0508C30.6387 44.2832 31.5274 44.2969 44.7071 44.2969H58.7754L59.0489 43.9414C59.2129 43.7363 59.336 43.4902 59.336 43.3945C59.336 43.0391 59.0215 42.5469 58.6934 42.3965C58.461 42.2871 54.3868 42.2461 44.5567 42.2461H30.7344L30.3243 42.6562Z" fill="black"/>
<path d="M30.5156 46.9902C30.4199 47.0312 30.2559 47.2363 30.1328 47.4688C29.9551 47.8105 29.9551 47.9473 30.0918 48.2754C30.1738 48.5078 30.3652 48.7402 30.502 48.8086C30.6524 48.8906 36.0254 48.9453 44.707 48.9453H58.666L58.9942 48.6035C59.1856 48.4258 59.336 48.1113 59.336 47.9199C59.336 47.7285 59.1856 47.4141 58.9942 47.2363L58.666 46.8945L44.6797 46.9082C36.9824 46.9082 30.6113 46.9492 30.5156 46.9902Z" fill="black"/>
<path d="M36.3944 51.8574C36.0253 52.2539 36.0116 52.7734 36.3534 53.1973L36.6132 53.5254L47.4687 53.5664C55.0292 53.5937 58.4198 53.5527 58.6659 53.457C59.0077 53.3066 59.3358 52.8144 59.3358 52.4453C59.3358 52.3496 59.2128 52.1035 59.0487 51.8984L58.7753 51.543H47.7284H36.6815L36.3944 51.8574Z" fill="black"/>
<path d="M36.6817 56.1914C36.0665 56.4375 35.9025 57.2988 36.3673 57.8047L36.6544 58.1055H47.715H58.7755L59.0489 57.75C59.4181 57.2715 59.4044 56.9707 59.0079 56.5059L58.6798 56.123L47.8243 56.0957C41.7403 56.082 36.8458 56.123 36.6817 56.1914Z" fill="black"/>
</svg>
