<svg width="70" height="70" viewBox="0 0 70 70" fill="none" xmlns="http://www.w3.org/2000/svg">
<g clip-path="url(#clip0_89_294)">
<path d="M2.26953 0.273369C1.47656 0.587822 0.779297 1.21673 0.369141 1.98235L0.0683594 2.52923V34.9999V67.4706L0.369141 68.0175C0.710938 68.6601 1.38086 69.3163 2.05078 69.6718C2.51562 69.9179 3.41797 69.9316 26.5918 69.9726C53.0469 69.9999 51.3242 70.0546 52.3906 69.1796C52.6641 68.9472 53.0469 68.455 53.2383 68.0585L53.5938 67.3476V60.8398V54.3183L53.2793 54.0312C52.8281 53.6074 52.0898 53.6347 51.666 54.0859L51.3379 54.4413L51.3105 60.539C51.2832 63.9023 51.2422 66.787 51.2012 66.9511C51.0234 67.7167 52.3633 67.6757 26.7285 67.6757H3.11719L2.7207 67.2792L2.32422 66.8827V35.0136V3.15813L2.65234 2.77532L2.98047 2.39251L26.6191 2.35149C43.2852 2.33782 50.3535 2.36517 50.5996 2.47454C50.8047 2.5429 51.0234 2.74798 51.1191 2.91204C51.2285 3.13079 51.2832 6.39837 51.3105 14.5195L51.3379 25.8124L51.666 26.1679C52.1035 26.6327 52.8691 26.6601 53.293 26.2089L53.5938 25.8945V14.2734V2.65228L53.2383 1.92767C52.8145 1.09368 51.9258 0.369072 51.0371 0.150322C50.6406 0.040947 42.9844 -6.86646e-05 26.7012 -6.86646e-05C3.5957 0.0136032 2.92578 0.0136032 2.26953 0.273369Z" fill="black"/>
<path d="M11.2656 7.10938C10.582 7.38281 10.5273 7.65625 10.5273 10.5684C10.5273 13.2617 10.5273 13.2754 10.8691 13.6035L11.1973 13.9453H26.8379H42.4785L42.752 13.6309C43.1621 13.1797 43.2168 12.8926 43.0117 12.3867C42.8887 12.0723 42.6836 11.8809 42.3828 11.7715C42.0547 11.6621 37.8848 11.6211 27.3984 11.6211H12.8516V10.459V9.29688H27.6582H42.4785L42.752 8.98242C43.1621 8.53125 43.2168 8.24414 43.0117 7.73828C42.8887 7.42383 42.6836 7.23242 42.3828 7.12305C41.8359 6.94531 11.7305 6.91797 11.2656 7.10938Z" fill="black"/>
<path d="M65.0097 14.369C64.2851 14.7244 63.7519 15.244 63.2871 16.078C62.9179 16.7205 62.8632 16.7616 62.4257 16.7069C62.1797 16.6795 61.8379 16.7205 61.6875 16.8026C61.5371 16.8846 60.7988 18.0057 60.0468 19.3045C58.1601 22.5448 58.4336 22.2577 57.5312 21.8202C56.8066 21.4647 56.7519 21.4647 56.2871 21.6561C55.9453 21.7928 55.7539 21.9705 55.6855 22.244C55.4804 23.0233 55.6582 23.3514 56.5605 23.9119L57.1484 24.2811L52.2129 32.8123L47.2773 41.3573L46.0605 44.6248C45.3769 46.4158 44.4609 48.5897 44.0234 49.451C43.2851 50.8455 43.2031 51.078 43.2031 51.8299C43.2031 52.3631 43.2988 52.8826 43.4902 53.3201L43.7773 53.9901L42.5742 55.4666C41.9179 56.2733 41.3437 56.9979 41.289 57.0526C41.2343 57.1209 40.9882 56.6698 40.7421 56.0682C40.0586 54.3592 39.1152 53.6756 37.7754 53.9354C37.2695 54.0311 36.3671 54.8104 36.0117 55.4256C35.9023 55.6307 35.8203 55.1112 35.6425 53.1287C35.3964 50.285 35.2734 49.9159 34.3437 49.2869C33.455 48.6854 32.1289 48.8905 31.4179 49.7381C30.8984 50.3534 27.9453 59.2537 28.082 59.7869C28.1914 60.2655 28.9296 60.7303 29.3945 60.6346C29.5859 60.5936 29.8593 60.4158 30.0097 60.2518C30.1601 60.0741 30.8711 58.1463 31.6504 55.7401C32.4023 53.4295 33.0449 51.5428 33.0859 51.5428C33.1406 51.5428 33.25 52.5682 33.3457 53.826C33.4414 55.1112 33.6054 56.328 33.7148 56.6014C34.4668 58.3924 36.6679 58.6385 37.7754 57.0526C38.0078 56.7244 38.2402 56.4647 38.2812 56.4647C38.3359 56.4647 38.541 56.9022 38.7597 57.4354C39.2246 58.6385 39.6211 59.117 40.4004 59.4041C41.1113 59.6776 41.8222 59.5955 42.4648 59.158C42.6972 59.0076 43.5312 58.0643 44.3105 57.0799L45.7187 55.2889L46.498 55.3436C47.1132 55.3846 47.4277 55.3299 48.0156 55.0701C48.9179 54.6463 49.2871 54.2635 50.3535 52.5955C50.8183 51.8709 52.1308 50.1483 53.2656 48.7674L55.33 46.2791L60.2929 37.6659C63.0136 32.9217 65.2695 29.0389 65.2832 29.0116C65.3789 28.9022 66.4453 29.5584 66.6367 29.8319C67.0879 30.4608 66.9375 30.8162 64.4492 35.1366C63.123 37.4334 62.0156 39.4979 61.9746 39.744C61.9062 40.0994 61.9746 40.2635 62.33 40.619C62.6992 40.9744 62.8359 41.0291 63.1914 40.9608C63.4238 40.9198 63.6972 40.8104 63.7929 40.7284C64.0664 40.4959 68.9062 32.0604 69.0566 31.5545C69.5078 29.9823 68.8515 28.4784 67.3066 27.4803L66.459 26.9334L67.9492 24.3358C69.5488 21.5877 69.7129 21.0682 69.1933 20.5897C68.9336 20.3436 68.9336 20.3299 69.3984 19.4823C69.9863 18.4159 70.1093 17.5409 69.8222 16.5291C69.3711 15.0116 68.0859 14.0819 66.459 14.0819C65.8437 14.0955 65.3789 14.1776 65.0097 14.369ZM67.2656 16.6795C67.7031 17.117 67.7441 17.5545 67.4023 18.2655C67.2246 18.6073 67.0195 18.9217 66.9238 18.9491C66.8007 19.0037 65.3105 18.2518 64.955 17.9647C64.8593 17.8827 65.625 16.6932 65.8711 16.5565C66.2675 16.3241 66.9648 16.3787 67.2656 16.6795ZM64.7226 20.5213C65.7754 21.1366 66.6777 21.6561 66.705 21.6834C66.7461 21.7244 64.6269 25.4842 64.4492 25.6893C64.4218 25.7303 60.6621 23.6112 60.4433 23.4334C60.3886 23.3924 62.6582 19.4139 62.7402 19.4139C62.7675 19.4139 63.6562 19.9198 64.7226 20.5213ZM61.8925 26.9744C62.5898 27.3573 63.164 27.7401 63.164 27.8084C63.164 27.9041 54.5234 42.9432 54.0175 43.7362C53.9218 43.8729 53.4707 43.6678 51.9394 42.7791C50.8593 42.1639 49.957 41.6444 49.9297 41.617C49.9023 41.6033 55.6718 31.5272 58.8847 26.0174L59.2265 25.4432L59.9238 25.8397C60.3203 26.0721 61.209 26.578 61.8925 26.9744ZM51.1738 45.0076C51.83 45.3905 52.4043 45.7459 52.4453 45.8143C52.4863 45.8826 51.8574 46.7303 51.0507 47.7147L49.5742 49.4784L48.8222 49.0545C48.3984 48.8084 47.8925 48.5213 47.6875 48.3983C47.4687 48.2889 47.3047 48.1522 47.3047 48.1112C47.3047 48.0155 48.8086 44.0096 48.9043 43.8455C48.9316 43.7908 49.1914 43.8729 49.4648 44.0369C49.7519 44.201 50.5039 44.6385 51.1738 45.0076ZM47.3867 50.9412C47.8652 51.2147 48.2617 51.4608 48.2617 51.4881C48.2617 51.7205 47.6601 52.6502 47.414 52.828C46.6894 53.3475 45.6504 52.828 45.623 51.953C45.623 51.4608 46.1289 50.4491 46.375 50.4491C46.4433 50.4491 46.9082 50.6678 47.3867 50.9412Z" fill="#4EA45D"/>
<path d="M14.3964 16.7069C13.9862 17.1718 13.9315 17.4589 14.1366 17.9784C14.287 18.3339 14.4647 18.4706 14.8612 18.5937C15.2304 18.703 18.7987 18.7304 27.1796 18.703L38.9921 18.662L39.3202 18.2792C39.744 17.7733 39.744 17.1718 39.3065 16.748L38.9784 16.4062H26.8241H14.6698L14.3964 16.7069Z" fill="black"/>
<path d="M19.4277 24.623C18.9492 24.8145 18.7441 25.1562 18.7305 25.7305C18.7305 26.1133 18.8125 26.291 19.0859 26.5098C19.4551 26.7969 19.5098 26.7969 32.7031 26.7969H45.9512L46.2793 26.4551C46.7441 26.0039 46.7441 25.3203 46.2656 24.8691L45.9102 24.541L32.8398 24.5137C24.623 24.5 19.6328 24.541 19.4277 24.623Z" fill="black"/>
<path d="M9.06445 31.541C8.6543 31.623 8.20312 32.2109 8.20312 32.6895C8.20312 32.8945 8.35352 33.25 8.53125 33.4551L8.85938 33.8379H20.959H33.0586L33.4141 33.5098C33.9062 33.0449 33.9062 32.3066 33.4141 31.8418L33.0586 31.5137L21.2188 31.5C14.6973 31.4863 9.22852 31.5 9.06445 31.541Z" fill="black"/>
<path d="M37.1191 31.541C36.2305 31.7734 35.916 32.8809 36.5859 33.5098L36.9414 33.8379H41.4531H45.9648L46.293 33.4551C46.7168 32.9629 46.7168 32.3887 46.293 31.8965L45.9648 31.5137L41.6719 31.4863C39.3203 31.4863 37.2695 31.5 37.1191 31.541Z" fill="black"/>
<path d="M8.81837 37.4883C8.12111 37.8848 7.98439 38.7598 8.54494 39.3066L8.87306 39.6484H15.1485H21.4238L21.793 39.293C22.2715 38.8008 22.2578 38.2402 21.752 37.7207L21.3555 37.3242H15.2168C10.8692 37.3379 9.00978 37.3789 8.81837 37.4883Z" fill="black"/>
<path d="M25.1561 37.502C24.4179 37.8711 24.3222 38.8555 24.9784 39.375C25.3065 39.6348 25.5526 39.6484 29.7909 39.6484C34.0975 39.6484 34.2753 39.6348 34.5624 39.375C35.1913 38.7871 35.0682 37.8848 34.3163 37.502C33.8241 37.2559 25.6483 37.2559 25.1561 37.502Z" fill="black"/>
<path d="M12.578 45.7324C8.84558 46.5254 5.94714 49.3281 4.97644 53.0469C4.62097 54.4141 4.64831 56.6699 5.03113 58.0371C6.0155 61.4551 8.55847 63.9844 11.9628 64.9688C12.7968 65.2012 13.412 65.2695 14.5604 65.2832C16.4198 65.2832 17.1854 65.1055 18.9764 64.2305C20.1659 63.6699 20.5761 63.3828 21.4511 62.5078C23.2421 60.7305 24.2811 58.543 24.4315 56.2051C24.4999 55.0566 24.4999 55.0156 24.1307 54.6465C23.3104 53.8398 22.1483 54.4551 22.1483 55.6855C22.1346 57.3945 21.2733 59.4043 19.9608 60.7031C18.4432 62.2207 16.7206 62.9453 14.6288 62.9453C10.3495 62.9727 7.02722 59.6504 7.05456 55.3711C7.05456 53.2793 7.77917 51.5566 9.29675 50.0391C11.1151 48.2207 13.7538 47.4688 16.2694 48.0703C17.0624 48.248 17.4862 48.4395 19.3046 49.3828C19.7557 49.6289 19.8378 49.6289 20.2889 49.4375C20.8085 49.2188 20.9725 48.8633 20.8905 48.1797C20.8085 47.4004 18.6073 46.1562 16.5565 45.7188C15.4354 45.4863 13.7401 45.4863 12.578 45.7324Z" fill="black"/>
<path d="M18.8672 52.0488C18.7578 52.0898 17.6641 53.0878 16.4336 54.2499L14.2051 56.3691L12.7969 54.9882C11.6348 53.8398 11.3203 53.5937 10.9785 53.5937C10.3906 53.5937 9.84375 54.1679 9.84375 54.7831C9.84375 55.1933 10.0215 55.4394 11.293 56.7382C12.0859 57.5585 12.9473 58.3241 13.2207 58.4472C13.7676 58.707 14.6563 58.748 15.2305 58.5156C15.7637 58.3241 19.9473 54.1952 20.1797 53.6347C20.4395 53.0195 20.207 52.3906 19.6055 52.1445C19.3594 52.0351 19.127 51.9531 19.1133 51.9667C19.0859 51.9667 18.9766 52.0077 18.8672 52.0488Z" fill="black"/>
</g>
<defs>
<clipPath id="clip0_89_294">
<rect width="70" height="70" fill="white"/>
</clipPath>
</defs>
</svg>
